<?xml version="1.0" encoding="UTF-8"?>
<svg id="Calque_6" data-name="Calque 6" xmlns="http://www.w3.org/2000/svg" viewBox="0 0 1373.6 1026.97">
  <defs>
    <style>
      .cls-1 {
        fill: #7dd1c1;
      }

      .cls-2 {
        fill: #ede2ca;
      }

      .cls-3 {
        fill: #fff;
      }
    </style>
  </defs>
  <g>
    <g>
      <path class="cls-2" d="M426.08,772.47v-187.32l-23.07-20.27h106.59v228.91h-110.09l26.56-21.32ZM550.85,729.83c0-24.11-8.74-41.59-25.86-56.27,14.68-16.78,21.67-34.95,21.67-53.12,0-19.92-8.74-39.49-25.16-55.57,10.13-1.05,19.22-1.75,28.31-1.75,52.07,0,75.84,23.42,75.84,55.22,0,25.86-17.82,46.13-52.42,53.12,40.89,4.89,62.56,30.75,62.56,61.51,0,37.05-29.71,60.81-88.42,60.81h-26.91c22.72-15.38,30.41-41.24,30.41-63.96Z"/>
      <path class="cls-2" d="M934.24,772.47v-187.32l-23.07-20.27h106.59v228.91h-110.09l26.56-21.32ZM1021.26,680.21l56.97-45.43v97.16l-56.97-51.72ZM1119.82,695.93v97.86h-85.28l85.28-97.86ZM1038.03,564.88h81.78v97.51l-81.78-97.51Z"/>
      <path class="cls-2" d="M674.57,772.47v-187.32l-23.07-20.27h106.59v228.91h-110.09l26.56-21.32ZM812.62,677.76c0-44.04-13.98-89.47-42.99-112.88h15.73c82.48,0,117.08,46.48,117.08,111.84,0,78.98-55.57,117.08-128.96,117.08h-2.8c27.61-28.66,41.94-68.5,41.94-116.03Z"/>
    </g>
    <path class="cls-1" d="M1119.82,831.86h-85.28c-2.82,0-5.63-.31-8.38-.93-2.75.62-5.56.93-8.4.93h-110.09c-15.96,0-30.26-10.01-35.74-24.96-27.06,16.37-60.81,24.96-98.46,24.96h-2.8c-2.1,0-4.21-.17-6.28-.52-2.08.35-4.19.52-6.3.52h-110.09c-11.49,0-22.15-5.12-29.29-13.75-19.5,9.13-43.47,13.75-71.37,13.75h-26.91c-1.81,0-3.62-.13-5.41-.38-1.79.26-3.61.38-5.42.38h-110.09c-16.13,0-30.57-10.22-35.92-25.44-5.35-15.22-.49-32.23,12.09-42.32l12.32-9.89v-151.83l-10.13-8.9c-11.83-10.4-16.05-27.29-10.49-42.03,5.56-14.74,19.87-24.64,35.63-24.64h106.59c2,0,3.99.16,5.95.46.67-.11,1.34-.19,2.01-.26,9.31-.96,20.43-1.95,32.22-1.95,28.44,0,52.33,5.74,71.16,17.09,7.06-9.54,18.26-15.34,30.54-15.34h106.59c1.93,0,3.87.15,5.78.44,1.9-.29,3.83-.44,5.76-.44h15.73c36,0,66.59,7.54,91.11,22.43,6.1-13.51,19.76-22.43,34.71-22.43h106.59c3.45,0,6.85.46,10.15,1.37,3.29-.91,6.68-1.37,10.12-1.37h81.78c20.99,0,38.07,17.08,38.07,38.07v97.51c0,5.86-1.33,11.58-3.89,16.78,2.56,5.2,3.89,10.91,3.89,16.78v97.86c0,20.99-17.08,38.07-38.07,38.07ZM1026.16,814.31l2.23.65c1.99.58,4.06.87,6.14.87h85.28c12.15,0,22.04-9.89,22.04-22.04v-97.86c0-4.4-1.3-8.65-3.75-12.3l-3.01-4.47,3.01-4.47c2.45-3.65,3.75-7.9,3.75-12.3v-97.51c0-12.15-9.89-22.04-22.04-22.04h-81.78c-2.54,0-5.04.43-7.42,1.29l-2.7.97-2.7-.97c-2.38-.85-4.88-1.28-7.44-1.28h-106.59c-9.12,0-17.41,5.73-20.63,14.27-.68,1.8-1.11,3.72-1.3,5.73l-1.32,14.13-11.42-8.42c-23.14-17.06-53.81-25.7-91.15-25.7h-15.73c-1.42,0-2.84.14-4.22.41l-1.53.3-1.53-.3c-1.39-.27-2.82-.41-4.25-.41h-106.59c-9,0-17.01,5.4-20.41,13.76l-3.88,9.56-8.3-6.13c-17.02-12.57-40.27-18.94-69.11-18.94-11.07,0-21.67.94-30.58,1.86-.7.07-1.4.18-2.08.32l-1.58.32-1.58-.32c-1.43-.29-2.9-.43-4.38-.43h-106.59c-9.12,0-17.41,5.73-20.63,14.27-3.22,8.53-.78,18.31,6.07,24.33l15.57,13.69v166.78l-18.32,14.7c-7.28,5.85-10.09,15.69-7,24.5,3.1,8.81,11.46,14.73,20.8,14.73h110.09c1.34,0,2.68-.12,3.99-.36l1.44-.26,1.44.26c1.3.24,2.64.36,3.97.36h26.91c28.38,0,51.99-5.08,70.19-15.09l7.16-3.94,3.8,7.24c3.82,7.27,11.29,11.79,19.5,11.79h110.09c1.56,0,3.12-.16,4.63-.49l1.67-.36,1.67.36c1.5.32,3.05.48,4.6.48h2.8c39.23,0,73.62-9.96,99.44-28.82l12.91-9.42-.16,15.98c-.03,2.61.39,5.14,1.23,7.53,3.1,8.81,11.45,14.73,20.79,14.73h110.09c2.1,0,4.17-.29,6.16-.87l2.23-.65ZM652.52,696.47l-14.07-16.21c-.96-1.1-1.86-2.09-2.76-3.02-1.01-1.05-2.06-2.08-3.13-3.07l-5.54-5.16,4.83-5.83c2.09-2.52,4.05-5.27,5.81-8.15l14.86-24.38v65.83Z"/>
  </g>
  <g>
    <path class="cls-3" d="M1095.84,383.54h-.01c-.07-.08-.14-.17-.2-.26.08.09.16.19.21.26Z"/>
    <path class="cls-1" d="M1189.03,576.34c-5.42-63.89-30.65-125.79-65.07-179.73-69.82-110.07-205.75-218.71-339.82-226.2-92.01-3.63-182.42,42.61-253.81,96.88-175.02,135.27-288.54,353.2-345.75,563.46,68.59-159.54,153.66-315.15,275.39-439.94l134.98,79.03c1.56.91,3.31,1.37,5.05,1.37,1.65,0,3.3-.41,4.79-1.22l168.31-91.84,168.39,91.8c2.92,1.59,6.44,1.63,9.39.1l137.03-71.13c25.45,29.45,47.3,60.43,64.2,91.22,15.19,27.35,27.51,56.18,36.91,86.2ZM946.4,449.85l-168.5-91.87c-2.98-1.63-6.59-1.63-9.58,0l-168.13,91.75-125.63-73.55c4.39-4.31,8.83-8.59,13.32-12.82,72.82-67.87,171.33-135.62,272.97-142.86,14.04-.84,28.08-.23,42.05,1.84,97.68,15.45,197.42,81.31,271.26,161.19l-127.76,66.32Z"/>
    <path class="cls-3" d="M487.88,363.36c-4.49,4.23-8.93,8.51-13.32,12.82l125.63,73.55,168.13-91.75c2.98-1.63,6.59-1.63,9.58,0l168.5,91.87,127.76-66.32c-73.85-79.88-173.59-145.74-271.26-161.19-13.97-2.08-28.01-2.69-42.05-1.84-101.64,7.25-200.15,75-272.97,142.86Z"/>
  </g>
  <g>
    <g>
      <path class="cls-1" d="M654.45,472.62h3.26v12.59h6.79v-14.19h3.31v28.39h-3.31v-11.43h-6.79v14.52h-3.26v-29.88Z"/>
      <path class="cls-1" d="M670.25,486.81c-.17-8.28,4.47-15.96,11.76-15.96,6.79,0,9.94,7.73,10.11,15.68.17,7.68-4.09,15.96-10.77,15.96h-.11c-7.4,0-10.88-7.57-10.99-15.68ZM688.86,486.59c-.11-6.19-2.43-12.43-6.85-12.43-5.52,0-8.5,6.35-8.45,12.59,0,6.41,2.6,12.59,7.73,12.48,4.86-.11,7.62-6.9,7.57-12.65Z"/>
      <path class="cls-1" d="M694.49,472.57h3.26l7.9,21.92v-23.47h3.26v30.21h-3.76l-7.4-20.49v21.76h-3.26v-29.93Z"/>
      <path class="cls-1" d="M711.34,486.81c-.17-8.28,4.47-15.96,11.76-15.96,6.79,0,9.94,7.73,10.11,15.68.17,7.68-4.09,15.96-10.77,15.96h-.11c-7.4,0-10.88-7.57-10.99-15.68ZM729.95,486.59c-.11-6.19-2.43-12.43-6.85-12.43-5.52,0-8.5,6.35-8.45,12.59,0,6.41,2.6,12.59,7.73,12.48,4.86-.11,7.62-6.9,7.57-12.65Z"/>
      <path class="cls-1" d="M741.55,491.9c-.83.17-1.71.28-2.6.28v10.33h-3.37v-28.11l-1.1.11-.55-3.2c7.35-1.33,15.13,3.2,15.63,10,.11,1.44.06,5.14-2.82,7.95-.61.55-1.27,1.1-2.04,1.49l7.9,12.59-2.76,1.71-8.28-13.14ZM746.3,481.51c-.33-3.48-3.59-6.13-7.35-6.96v14.3c4.75-.17,7.62-2.87,7.35-7.34Z"/>
      <path class="cls-1" d="M754.19,471.02h10.71v3.09h-7.46v13.86h5.96v3.09h-5.96v8.39h7.46v3.04h-10.71v-31.48ZM759.83,462.13h2.71l-1.88,6.3h-2.15c.17-.83.99-4.75,1.33-6.3Z"/>
    </g>
    <g>
      <path class="cls-1" d="M785.62,491.9c-.83.17-1.71.28-2.6.28v10.33h-3.37v-28.11l-1.1.11-.55-3.2c7.35-1.33,15.13,3.2,15.63,10,.11,1.44.06,5.14-2.82,7.95-.61.55-1.27,1.1-2.04,1.49l7.9,12.59-2.76,1.71-8.28-13.14ZM790.37,481.51c-.33-3.48-3.59-6.13-7.35-6.96v14.3c4.75-.17,7.62-2.87,7.35-7.34Z"/>
      <path class="cls-1" d="M795.39,486.81c-.17-8.28,4.47-15.96,11.76-15.96,6.79,0,9.94,7.73,10.11,15.68.17,7.68-4.09,15.96-10.77,15.96h-.11c-7.4,0-10.88-7.57-10.99-15.68ZM814,486.59c-.11-6.19-2.43-12.43-6.85-12.43-5.52,0-8.5,6.35-8.45,12.59,0,6.41,2.6,12.59,7.73,12.48,4.86-.11,7.62-6.9,7.57-12.65Z"/>
      <path class="cls-1" d="M819.64,471.02h3.26v.06h.06l6.68,23.2,6.74-23.25h3.31v28.55h-3.26v-18.67l-5.47,18.72h-2.65l-5.41-18.67v21.54h-3.26v-31.48Z"/>
      <path class="cls-1" d="M854.26,488.91c-.99.11-4.14.11-5.91.11l-3.42,12.37-3.15-.83,3.2-11.76c-.22,0-.83-.06-1.27-.11l.17-2.49c.44.06,1.27.06,1.77.06l4.36-15.74,3.15.06,3.64,14.86c.33,0,1.1-.33,1.82-.61l1.55,2.87c-.72.39-1.71.66-2.65.83l3.87,15.79-3.2.72-3.92-16.13ZM853.55,485.99l-2.04-8.45-2.43,8.73c1.38,0,4.53-.28,4.47-.28Z"/>
      <path class="cls-1" d="M863.43,472.57h3.26l7.9,21.92v-23.47h3.26v30.21h-3.76l-7.4-20.49v21.76h-3.26v-29.93Z"/>
      <path class="cls-1" d="M881.05,471.02h10.71v3.09h-7.46v13.86h5.96v3.09h-5.96v8.39h7.46v3.04h-10.71v-31.48Z"/>
    </g>
  </g>
</svg>